<svg xmlns="http://www.w3.org/2000/svg" viewBox="0 0 512 512" role="img" aria-labelledby="title desc">
  <title id="title">Grassroots Football Intelligence - Pitch Pulse</title>
  <desc id="desc">A football pitch and ball crossed by a rising analytics pulse.</desc>
  <defs>
    <linearGradient id="bg" x1="64" y1="40" x2="448" y2="472" gradientUnits="userSpaceOnUse">
      <stop stop-color="#ba4ca6"/>
      <stop offset="1" stop-color="#59164f"/>
    </linearGradient>
    <filter id="shadow" x="-20%" y="-20%" width="140%" height="140%">
      <feDropShadow dx="0" dy="16" stdDeviation="18" flood-color="#080609" flood-opacity=".35"/>
    </filter>
  </defs>
  <rect x="36" y="36" width="440" height="440" rx="112" fill="url(#bg)" filter="url(#shadow)"/>
  <rect x="92" y="92" width="328" height="328" rx="48" fill="#120d14" fill-opacity=".72" stroke="#e4a5da" stroke-width="10"/>
  <path d="M256 96v320M96 256h320" stroke="#e4a5da" stroke-width="8" opacity=".62"/>
  <circle cx="256" cy="256" r="74" fill="none" stroke="#e4a5da" stroke-width="8" opacity=".62"/>
  <path d="M104 326h72l30-68 50 112 44-144 36 100h72" fill="none" stroke="#68e0c1" stroke-width="22" stroke-linecap="round" stroke-linejoin="round"/>
  <circle cx="256" cy="256" r="38" fill="#f8f5f8" stroke="#160f18" stroke-width="8"/>
  <path d="m256 235 18 13-7 21h-22l-7-21 18-13Zm-35 9 18 4m34 0 18-4m-61 43 15-18m22 0 15 18" fill="#6c1d5f" stroke="#6c1d5f" stroke-width="7" stroke-linecap="round" stroke-linejoin="round"/>
</svg>
